<?xml version="1.0" encoding="UTF-8" standalone="no"?>
<!DOCTYPE svg PUBLIC "-//W3C//DTD SVG 1.1//EN" "http://www.w3.org/Graphics/SVG/1.1/DTD/svg11.dtd">
<svg width="100%" height="100%" viewBox="0 0 500 600" version="1.1" xmlns="http://www.w3.org/2000/svg" xmlns:xlink="http://www.w3.org/1999/xlink" xml:space="preserve" xmlns:serif="http://www.serif.com/" style="fill-rule:evenodd;clip-rule:evenodd;stroke-linejoin:round;stroke-miterlimit:2;">
    <path d="M170.538,-20.467C116.546,-80.474 68.208,29.72 91.801,72.524C142.603,164.692 271.091,151.427 317.381,245.942C351.959,316.543 260.666,394.472 252.367,472.647C247.848,515.215 262.477,559.005 280.002,598.061C285.863,611.124 303.606,616.571 317.797,618.466C366.326,624.946 415.679,621.148 464.613,622.713C500.635,623.866 566.043,662.045 572.663,626.618C610.914,421.908 690.534,178.789 580.613,1.908C508.357,-114.365 302.433,-57.127 170.538,-20.467Z" style="fill:rgb(37,192,255);fill-opacity:0.4;"/>
    <g transform="matrix(1,0,0,1,-11.2944,27.4904)">
        <path d="M195.081,-136.78C148.856,-120.905 48.757,-20.867 78.159,45.711C121.209,143.195 319.69,123.707 317.381,245.942C315.896,324.542 260.666,394.472 252.367,472.647C247.848,515.215 262.477,559.005 280.002,598.061C285.863,611.124 303.606,616.571 317.797,618.466C366.326,624.946 415.679,621.148 464.613,622.713C500.635,623.866 566.043,662.045 572.663,626.618C610.914,421.908 690.534,178.789 580.613,1.908C508.357,-114.365 326.976,-173.44 195.081,-136.78Z" style="fill:rgb(37,192,255);fill-opacity:0.36;"/>
    </g>
    <g transform="matrix(1,0,0,1,-30.9048,42.7248)">
        <path d="M195.081,-136.78C148.856,-120.905 48.757,-20.867 78.159,45.711C121.209,143.195 291.53,60.079 317.381,245.942C328.211,323.807 260.666,394.472 252.367,472.647C247.848,515.215 262.477,559.005 280.002,598.061C285.863,611.124 303.606,616.571 317.797,618.466C366.326,624.946 415.679,621.148 464.613,622.713C500.635,623.866 566.043,662.045 572.663,626.618C610.914,421.908 690.534,178.789 580.613,1.908C508.357,-114.365 326.976,-173.44 195.081,-136.78Z" style="fill:rgb(37,192,255);fill-opacity:0.31;"/>
    </g>
</svg>
